PathFileType	4	(X/Y/Z)	/Users/itak/Documents/Research/Walk-IL/dataset/trc/00535_00009.trc
DataRate	CameraRate	NumFrames	NumMarkers	Units	OrigDataRate	OrigDataStartFrame	OrigNumFrames
100.000000	100.000000	4	53	mm	100.000000	498	797
Frame#	Time	RPSI			LPSI			L3			STRN			T10			C7			CLAV			RBAK			LBAK			LSHO			LUPA			LAEL			LAOL			LWTS			LWPS			LFRA			LIFD			LHPS			LHTS			RSHO			RUPA			RAEL			RAOL			RWTS			RWPS			RFRA			RIFD			RHTS			RHPS			RBHD			LFHD			RFHD			LBHD			LHIP			RHIP			RASI			LASI			LKNE			LTHI			LANK			LTIP			LTOE			LMT1			LMT5			LHEE			RKNE			RTHI			RANK			RTIP			RTOE			RMT1			RMT5			RHEE			
		X1	Y1	Z1	X2	Y2	Z2	X3	Y3	Z3	X4	Y4	Z4	X5	Y5	Z5	X6	Y6	Z6	X7	Y7	Z7	X8	Y8	Z8	X9	Y9	Z9	X10	Y10	Z10	X11	Y11	Z11	X12	Y12	Z12	X13	Y13	Z13	X14	Y14	Z14	X15	Y15	Z15	X16	Y16	Z16	X17	Y17	Z17	X18	Y18	Z18	X19	Y19	Z19	X20	Y20	Z20	X21	Y21	Z21	X22	Y22	Z22	X23	Y23	Z23	X24	Y24	Z24	X25	Y25	Z25	X26	Y26	Z26	X27	Y27	Z27	X28	Y28	Z28	X29	Y29	Z29	X30	Y30	Z30	X31	Y31	Z31	X32	Y32	Z32	X33	Y33	Z33	X34	Y34	Z34	X35	Y35	Z35	X36	Y36	Z36	X37	Y37	Z37	X38	Y38	Z38	X39	Y39	Z39	X40	Y40	Z40	X41	Y41	Z41	X42	Y42	Z42	X43	Y43	Z43	X44	Y44	Z44	X45	Y45	Z45	X46	Y46	Z46	X47	Y47	Z47	X48	Y48	Z48	X49	Y49	Z49	X50	Y50	Z50	X51	Y51	Z51	X52	Y52	Z52	X53	Y53	Z53	

499	4.98	580.3223266601562	1021.526733398438	515.3657836914062	586.2643432617188	1025.281860351562	381.8080139160156	587.9542846679688	1110.217529296875	445.068115234375	815.4212646484375	1297.35009765625	448.30126953125	574.2393188476562	1235.451416015625	442.7500915527344	618.3553466796875	1508.817138671875	459.275390625	794.3258666992188	1408.582641601562	451.4629211425781	547.7448120117188	1382.58251953125	544.2793579101562	587.0923461914062	1456.960571289062	365.3899230957031	689.459228515625	1483.710693359375	288.2538146972656	686.2384643554688	1359.732543945312	204.4660034179688	714.2802124023438	1140.6357421875	174.9360809326172	625.9833984375	1125.132446289062	224.6850433349609	833.1738891601562	910.4036865234375	215.0432739257812	788.9251708984375	883.1318969726562	144.9318389892578	744.811767578125	1057.9375	166.2360382080078	852.8831787109375	740.8187866210938	205.9880523681641	805.4547729492188	824.8115844726562	151.6727752685547	857.7669067382812	836.1001586914062	193.5480346679688	678.07275390625	1470.623901367188	615.533203125	657.9248657226562	1405.203857421875	681.7691040039062	659.5128173828125	1117.748046875	731.1074829101562	607.588623046875	1095.481567382812	701.7342529296875	819.1302490234375	915.18994140625	704.84326171875	773.120849609375	890.0816040039062	767.6294555664062	674.7532958984375	1063.763305664062	740.2575073242188	854.7235717773438	746.6929931640625	712.4515991210938	859.357666015625	829.7536010742188	724.6354370117188	800.8947143554688	819.58740234375	769.718017578125	688.1788940429688	1685.013793945312	529.0634155273438	848.59228515625	1717.154418945312	400.4561767578125	825.7848510742188	1711.137939453125	543.1277465820312	721.3794555664062	1690.481567382812	367.2358093261719	707.62744140625	943.9435424804688	253.3929901123047	702.2954711914062	942.9107666015625	637.7733154296875	787.92578125	971.3802490234375	579.55908203125	789.0018920898438	961.6271362304688	303.7171630859375	705.4857177734375	488.743896484375	269.4890441894531	720.04150390625	660.3789672851562	255.2047576904297	329.4794311523438	161.6689605712891	252.9391784667969	500.9151000976562	328.9181823730469	250.39990234375	460.5050659179688	33.09375	363.1531372070312	414.2999267578125	96.10143280029297	375.1086730957031	400.69873046875	65.17348480224609	276.0546875	287.6355590820312	229.8003997802734	286.7757263183594	774.150146484375	501.3032531738281	565.9660034179688	750.9652709960938	788.47998046875	628.7811279296875	730.1948852539062	38.94212341308594	508.9434509277344	788.6475830078125	359.2861938476562	541.0322265625	952.0364990234375	41.88111114501953	474.9797973632812	889.6080322265625	42.33854675292969	433.09814453125	862.5543212890625	40.95943069458008	534.59814453125	678.63232421875	34.04579544067383	448.8046875	
500	4.99	583.4830322265625	1021.858093261719	516.2763061523438	589.4708862304688	1025.417724609375	382.703369140625	591.3838500976562	1110.688598632812	446.1691284179688	819.133544921875	1297.411987304688	449.3795471191406	577.7918090820312	1235.95263671875	444.08740234375	622.4063110351562	1509.167724609375	460.7383728027344	798.236083984375	1408.687255859375	452.5818481445312	551.8592529296875	1383.069702148438	545.9705200195312	590.8968505859375	1457.397583007812	366.8266906738281	693.2606201171875	1484.074340820312	289.6065368652344	690.225341796875	1360.1728515625	205.8232727050781	719.368896484375	1141.2919921875	176.4746704101562	630.8040771484375	1125.03466796875	225.6404571533203	841.8864135742188	913.68359375	218.3565521240234	798.5307006835938	885.048095703125	148.2181243896484	751.1527099609375	1059.142700195312	168.3049011230469	865.3861083984375	744.5571899414062	210.4420623779297	816.2781372070312	827.15087890625	155.4171600341797	868.182861328125	839.8544311523438	197.4153289794922	682.506103515625	1470.850463867188	616.8027954101562	662.6273193359375	1405.567504882812	683.1460571289062	664.7465209960938	1118.214965820312	732.8834838867188	612.6842651367188	1095.885131835938	703.8182983398438	824.416748046875	915.8323364257812	706.1022338867188	778.7776489257812	890.735595703125	769.1370849609375	679.9966430664062	1064.25927734375	742.122314453125	860.2808837890625	747.406982421875	713.7520141601562	864.8506469726562	830.477783203125	725.8277587890625	806.6341552734375	820.2979736328125	771.21142578125	692.5257568359375	1685.23486328125	530.3743896484375	852.7412719726562	1717.263671875	401.5174865722656	830.162353515625	1711.258666992188	544.2367553710938	725.5098266601562	1690.666625976562	368.4573364257812	710.7903442382812	944.154296875	254.2854614257812	705.06884765625	942.9652099609375	638.8974609375	790.9916381835938	971.36767578125	580.7066040039062	792.3683471679688	961.9147338867188	304.7759399414062	713.2136840820312	488.7329406738281	269.2992858886719	725.9031372070312	660.6533813476562	255.4624481201172	334.9618530273438	163.7370452880859	253.3987579345703	507.6076965332031	330.2764892578125	250.4430389404297	467.6104125976562	34.76071548461914	361.8656311035156	421.7083129882812	98.67867279052734	374.7257995605469	406.4794006347656	67.35714721679688	275.9992370605469	293.3017272949219	231.9258422851562	287.4762573242188	774.9058227539062	501.0556030273438	566.8892822265625	753.424560546875	788.4080810546875	629.544921875	730.1519165039062	38.87408828735352	509.012939453125	788.8618774414062	359.0750427246094	541.6834716796875	952.0116577148438	41.85897827148438	475.0720520019531	889.64306640625	42.49037170410156	433.1286010742188	862.5208740234375	40.82106018066406	534.7740478515625	678.5721435546875	34.02864074707031	448.860107421875	
501	5	586.5258178710938	1022.120788574219	517.1306762695312	592.5897827148438	1025.480224609375	383.5461120605469	594.7110595703125	1111.1142578125	447.19775390625	822.7324829101562	1297.4453125	450.4315795898438	581.231201171875	1236.412353515625	445.3577270507812	626.3447265625	1509.480590820312	462.1592407226562	802.02587890625	1408.755737304688	453.6725769042969	555.8367309570312	1383.512817382812	547.587158203125	594.6080322265625	1457.800903320312	368.2158813476562	696.9556884765625	1484.4052734375	290.9271850585938	694.0792846679688	1360.574340820312	207.1342468261719	724.2623291015625	1141.931884765625	177.9635162353516	635.4382934570312	1124.937255859375	226.5341796875	850.3342895507812	917.0184936523438	221.6854248046875	807.92236328125	887.0397338867188	151.5105133056641	757.2981567382812	1060.353149414062	170.3451690673828	877.6184692382812	748.4430541992188	214.9266815185547	826.8775024414062	829.5974731445312	159.1802215576172	878.34326171875	843.7083740234375	201.2885589599609	686.8084106445312	1471.012573242188	618.0517578125	667.1790161132812	1405.863525390625	684.4774780273438	669.813720703125	1118.623901367188	734.6318969726562	617.603271484375	1096.231811523438	705.8765258789062	829.5135498046875	916.4058837890625	707.3296508789062	784.2561645507812	891.32177734375	770.6156005859375	685.0612182617188	1064.687133789062	743.9688720703125	865.6593017578125	748.053955078125	715.0111083984375	870.16845703125	831.133544921875	726.9765625	812.2116088867188	820.9515991210938	772.6702880859375	696.7969360351562	1685.421264648438	531.6703491210938	856.8139038085938	1717.321533203125	402.5594787597656	834.4642944335938	1711.3212890625	545.3391723632812	729.5515747070312	1690.8095703125	369.6807861328125	714.0620727539062	944.1912841796875	255.2129821777344	707.6494140625	942.9917602539062	640.0263061523438	793.955810546875	971.3472900390625	581.852294921875	795.6980590820312	962.188232421875	305.839111328125	720.8737182617188	488.7705993652344	269.1307067871094	731.7269287109375	660.9368896484375	255.7410888671875	340.9647827148438	165.2536010742188	253.8808441162109	514.4263305664062	331.4169311523438	250.5363616943359	475.8580322265625	37.02939987182617	360.6103210449219	429.771728515625	101.1194763183594	374.3958740234375	413.3056335449219	69.45420837402344	275.9033508300781	299.2076721191406	233.3262481689453	288.2073974609375	775.6569213867188	500.8155822753906	567.772216796875	755.92138671875	788.31201171875	630.2164306640625	730.114990234375	38.81698608398438	509.06494140625	789.0930786132812	358.8668212890625	542.2766723632812	951.9942016601562	41.84399795532227	475.1841430664062	889.6800537109375	42.63850402832031	433.1619873046875	862.4861450195312	40.70221710205078	534.931396484375	678.5143432617188	34.01199722290039	448.9025573730469	
502	5.01	589.4760131835938	1022.320007324219	517.9313354492188	595.6436157226562	1025.490478515625	384.3360290527344	597.9473266601562	1111.494018554688	448.1595764160156	826.2201538085938	1297.462890625	451.4615783691406	584.5728149414062	1236.829711914062	446.55859375	630.1654663085938	1509.760864257812	463.5335998535156	805.6944580078125	1408.799194335938	454.7373352050781	559.6759033203125	1383.911499023438	549.1182861328125	598.2273559570312	1458.17431640625	369.5543823242188	700.5443115234375	1484.70849609375	292.214111328125	697.802978515625	1360.940185546875	208.4014892578125	728.960205078125	1142.5556640625	179.4026641845703	639.8873901367188	1124.841674804688	227.3781433105469	858.4956665039062	920.392333984375	225.0167236328125	817.0657958984375	889.0952758789062	154.8002014160156	763.2371826171875	1061.566528320312	172.3529052734375	889.5313720703125	752.4588623046875	219.4155120849609	837.2138061523438	832.13818359375	162.9422454833984	888.2108764648438	847.6400756835938	205.1469879150391	690.9649658203125	1471.126220703125	619.2758178710938	671.561767578125	1406.101318359375	685.7637329101562	674.7052001953125	1118.9794921875	736.3425903320312	622.3455810546875	1096.523559570312	707.889404296875	834.4168090820312	916.91455078125	708.5272827148438	789.5443725585938	891.8469848632812	772.0659790039062	689.9442138671875	1065.052001953125	745.77685546875	870.8491821289062	748.6375122070312	716.2396850585938	875.3035278320312	831.7256469726562	728.0868530273438	817.6083374023438	821.552734375	774.096435546875	700.986572265625	1685.586303710938	532.9514770507812	860.8121948242188	1717.332275390625	403.5848083496094	838.690185546875	1711.332641601562	546.435302734375	733.5026245117188	1690.923461914062	370.9085388183594	717.44921875	944.0587158203125	256.1604614257812	710.0950927734375	942.9935302734375	641.1336669921875	796.8356323242188	971.324462890625	582.9953002929688	798.9979858398438	962.4638061523438	306.9183044433594	728.4515991210938	488.8679809570312	268.9879150390625	737.5152587890625	661.2401123046875	256.042724609375	347.5271911621094	166.1824493408203	254.377685546875	521.3861083984375	332.30859375	250.6810455322266	485.2185974121094	39.77783203125	359.4154663085938	438.4468078613281	103.3379669189453	374.1154479980469	421.1876831054688	71.41629028320312	275.7552795410156	305.3846130371094	233.9514923095703	288.9595642089844	776.4270629882812	500.5876770019531	568.5933837890625	758.405029296875	788.1968994140625	630.82373046875	730.0834350585938	38.77052688598633	509.098876953125	789.3634033203125	358.6633911132812	542.79443359375	951.979736328125	41.84163284301758	475.3176879882812	889.7139892578125	42.78116989135742	433.2059326171875	862.4508666992188	40.60302734375	535.0684814453125	678.4569702148438	33.99663925170898	448.9325256347656	
